<svg width="48" height="48" viewBox="0 0 48 48" fill="none" xmlns="http://www.w3.org/2000/svg">
<path d="M36.3 0H26.7V9.7416C30.1352 10.1192 33.4285 11.3204 36.3 13.2432V0ZM21.9 0H12.3V13.2432C15.1716 11.3204 18.4649 10.1192 21.9 9.7416V0Z" fill="#0B3D91"/>
<path fill-rule="evenodd" clip-rule="evenodd" d="M24.2998 14.4001C28.7554 14.4001 33.0291 16.1704 36.1797 19.321C39.3301 22.4716 41.0996 26.7445 41.0996 31.2C41.0996 35.6556 39.3303 39.9292 36.1797 43.0798C33.0291 46.2304 28.7554 47.9998 24.2998 47.9998C19.8444 47.9997 15.5714 46.2302 12.4209 43.0798C9.27029 39.9292 7.5 35.6556 7.5 31.2C7.5 26.7444 9.27035 22.4716 12.4209 19.321C15.5715 16.1705 19.8442 14.4002 24.2998 14.4001ZM21.3604 27.5544L14.791 28.5076L19.5459 33.1443L18.4229 39.6892L24.2998 36.6003L30.1797 39.6892L29.0566 33.1443L33.8115 28.5076L27.2402 27.5544L24.2998 21.6003L21.3604 27.5544Z" fill="#C3CDDD"/>
</svg>
