<svg width="48" height="48" viewBox="0 0 48 48" fill="none" xmlns="http://www.w3.org/2000/svg">
<g clip-path="url(#clip0_602_248)">
<path d="M7.8 14.4C9.765 14.4 11.505 15.345 12.6 16.8H34.2C39.3975 16.8 44.325 18.5025 47.64 22.92C48.12 23.5575 48.12 24.4425 47.64 25.08C44.325 29.4975 39.3975 31.2 34.2 31.2H12.6C11.505 32.655 9.765 33.6 7.8 33.6H7.2V40.8H6C4.01175 40.8 2.4 39.1875 2.4 37.2V33.6H3C1.34325 33.6 0 32.2575 0 30.6V17.4C0 15.7425 1.34175 14.4 2.997 14.4H2.4V10.8C2.4 8.8117 4.01175 7.19995 6 7.19995H7.2V14.4H7.8ZM35.73 20.4C35.4825 20.4 35.4 20.4825 35.4 20.73V27.27C35.4 27.45 35.4825 27.6 35.73 27.6C37.2075 27.6 38.4 26.4075 38.4 24.93V23.07C38.4 21.5925 37.2075 20.4 35.73 20.4Z" fill="#0B3D91"/>
<path d="M9.59998 40.8H9.68248C12.795 40.8 15.78 39.9075 18.39 38.4075L26.4 33.6H9.59998V40.8Z" fill="#C3CDDD"/>
<path d="M9.59998 14.4H26.4L18.39 9.59395C15.78 8.0272 12.795 7.19995 9.68248 7.19995H9.59998V14.4Z" fill="#C3CDDD"/>
</g>
<defs>
<clipPath id="clip0_602_248">
<rect width="48" height="48" fill="white"/>
</clipPath>
</defs>
</svg>
