<svg width="48" height="48" viewBox="0 0 48 48" fill="none" xmlns="http://www.w3.org/2000/svg">
<path d="M10.0837 23.4375C9.88484 23.0931 9.55734 22.8417 9.17322 22.7387C8.78909 22.6357 8.37977 22.6894 8.03525 22.8881L3.37494 25.5759C2.93867 25.826 2.55758 26.1618 2.25466 26.5632C1.95174 26.9646 1.73328 27.4231 1.61244 27.9112C1.37992 28.8791 1.53289 29.8994 2.039 30.7566L2.44775 31.4634C2.94536 32.3239 3.76421 32.9516 4.72438 33.2086C5.68455 33.4656 6.70748 33.3309 7.56838 32.8341L12.2249 30.15C12.3957 30.0516 12.5454 29.9205 12.6654 29.7643C12.7855 29.608 12.8736 29.4297 12.9247 29.2393C12.9758 29.049 12.9889 28.8505 12.9633 28.6551C12.9376 28.4597 12.8737 28.2713 12.7753 28.1006L10.0837 23.4375Z" fill="#C3CDDD"/>
<path d="M35.8913 41.325L27.0675 23.8125C27.0461 23.7697 27.0418 23.7203 27.0556 23.6745C27.0693 23.6286 27.1001 23.5898 27.1416 23.5659L27.9197 23.1169C28.0904 23.0184 28.24 22.8873 28.36 22.731C28.4799 22.5747 28.568 22.3963 28.619 22.206C28.67 22.0157 28.683 21.8172 28.6573 21.6218C28.6316 21.4265 28.5676 21.2381 28.4691 21.0675L24.0132 13.3491C23.9148 13.1783 23.7837 13.0286 23.6275 12.9086C23.4712 12.7885 23.2928 12.7004 23.1025 12.6493C22.9122 12.5982 22.7137 12.5851 22.5183 12.6107C22.3229 12.6364 22.1345 12.7002 21.9638 12.7987L13.8657 17.4675C13.4382 17.7124 13.0635 18.0397 12.7634 18.4304C12.4633 18.8212 12.2436 19.2675 12.1172 19.7437C12.0313 20.0411 11.988 20.3492 11.9888 20.6587C11.9944 21.3712 12.8513 22.7869 13.6875 24.2475C14.5866 25.8178 15.4913 27.4237 16.1569 27.824C16.5807 28.079 17.3288 28.2834 17.9579 28.2834H18.0366L10.6004 44.3709C10.5175 44.5498 10.4707 44.7432 10.4627 44.9402C10.4546 45.1371 10.4855 45.3337 10.5535 45.5187C10.6214 45.7038 10.7252 45.8736 10.8589 46.0184C10.9925 46.1633 11.1534 46.2804 11.3324 46.3631C11.5113 46.4458 11.7048 46.4924 11.9017 46.5002C12.0987 46.508 12.2953 46.477 12.4802 46.4088C12.6652 46.3406 12.8349 46.2367 12.9796 46.1029C13.1244 45.9691 13.2413 45.8081 13.3238 45.629L22.1063 26.6306C22.1709 26.49 22.2777 26.373 22.4119 26.2959L24.2129 25.2572C24.235 25.2445 24.2595 25.2365 24.2848 25.2337C24.3101 25.2308 24.3357 25.2331 24.3601 25.2405C24.3845 25.2479 24.4071 25.2601 24.4266 25.2765C24.4461 25.2929 24.4621 25.3131 24.4735 25.3359L33.2119 42.6797C33.3006 42.8556 33.423 43.0123 33.5722 43.141C33.7214 43.2696 33.8945 43.3675 34.0816 43.4293C34.2687 43.491 34.4661 43.5153 34.6626 43.5007C34.859 43.4861 35.0507 43.433 35.2266 43.3444C35.4025 43.2557 35.5593 43.1333 35.6879 42.9841C35.8165 42.8349 35.9145 42.6618 35.9762 42.4747C36.0379 42.2876 36.0622 42.0902 36.0476 41.8937C36.0331 41.6973 35.9799 41.5056 35.8913 41.3297V41.325ZM45.9572 10.8506L41.6335 3.37499C41.1345 2.51581 40.3155 1.88924 39.3557 1.63238C38.3958 1.37552 37.3734 1.50927 36.5119 2.00437L27.7613 7.04624C27.3337 7.29099 26.9589 7.61824 26.6588 8.00899C26.3586 8.39974 26.1391 8.84621 26.0129 9.32249C25.8886 9.72404 25.8481 10.1468 25.8938 10.5647C26.0569 11.7478 27.1125 13.4147 28.3697 15.6169C29.6429 17.8416 31.08 20.3494 31.8319 20.8922C32.4675 21.3415 33.2267 21.5829 34.005 21.5831C34.6607 21.5834 35.3049 21.4107 35.8726 21.0825L44.625 16.0378C45.0604 15.7883 45.4409 15.4535 45.7436 15.0533C46.0463 14.6531 46.265 14.1959 46.3866 13.7091C46.6208 12.7367 46.4668 11.7113 45.9572 10.8506Z" fill="#0B3D91"/>
</svg>
