<svg width="57" height="48" viewBox="0 0 57 48" fill="none" xmlns="http://www.w3.org/2000/svg">
<path d="M25.9345 44.4209C37.4219 44.4209 46.7343 35.0445 46.7343 23.4783C46.7343 11.912 37.4219 2.53564 25.9345 2.53564C14.447 2.53564 5.13464 11.912 5.13464 23.4783C5.13464 35.0445 14.447 44.4209 25.9345 44.4209Z" fill="#0B3D91"/>
<path d="M24.7064 6.79305C24.8352 6.79305 24.9396 6.68794 24.9396 6.55827C24.9396 6.4286 24.8352 6.32349 24.7064 6.32349C24.5777 6.32349 24.4733 6.4286 24.4733 6.55827C24.4733 6.68794 24.5777 6.79305 24.7064 6.79305Z" fill="white"/>
<path d="M27.1005 7.10604C27.2293 7.10604 27.3337 7.00092 27.3337 6.87126C27.3337 6.74159 27.2293 6.63647 27.1005 6.63647C26.9717 6.63647 26.8673 6.74159 26.8673 6.87126C26.8673 7.00092 26.9717 7.10604 27.1005 7.10604Z" fill="white"/>
<path d="M30.2406 11.3634C30.3694 11.3634 30.4738 11.2582 30.4738 11.1286C30.4738 10.9989 30.3694 10.8938 30.2406 10.8938C30.1118 10.8938 30.0074 10.9989 30.0074 11.1286C30.0074 11.2582 30.1118 11.3634 30.2406 11.3634Z" fill="white"/>
<path d="M13.0163 33.2764C13.145 33.2764 13.2494 33.1713 13.2494 33.0417C13.2494 32.912 13.145 32.8069 13.0163 32.8069C12.8875 32.8069 12.7831 32.912 12.7831 33.0417C12.7831 33.1713 12.8875 33.2764 13.0163 33.2764Z" fill="white"/>
<path d="M13.6226 35.1549C13.7514 35.1549 13.8558 35.0498 13.8558 34.9201C13.8558 34.7904 13.7514 34.6853 13.6226 34.6853C13.4938 34.6853 13.3894 34.7904 13.3894 34.9201C13.3894 35.0498 13.4938 35.1549 13.6226 35.1549Z" fill="white"/>
<path d="M10.7311 33.4994C10.8276 33.4994 10.9058 33.4206 10.9058 33.3235C10.9058 33.2264 10.8276 33.1477 10.7311 33.1477C10.6347 33.1477 10.5565 33.2264 10.5565 33.3235C10.5565 33.4206 10.6347 33.4994 10.7311 33.4994Z" fill="white"/>
<path d="M20.2138 37.1896C20.3106 37.1896 20.389 37.1107 20.389 37.0133C20.389 36.9159 20.3106 36.8369 20.2138 36.8369C20.1171 36.8369 20.0387 36.9159 20.0387 37.0133C20.0387 37.1107 20.1171 37.1896 20.2138 37.1896Z" fill="white"/>
<path d="M35.0866 34.0785C35.1831 34.0785 35.2612 33.9997 35.2612 33.9026C35.2612 33.8055 35.1831 33.7268 35.0866 33.7268C34.9902 33.7268 34.912 33.8055 34.912 33.9026C34.912 33.9997 34.9902 34.0785 35.0866 34.0785Z" fill="white"/>
<path d="M39.4088 29.352C39.5055 29.352 39.5839 29.273 39.5839 29.1756C39.5839 29.0782 39.5055 28.9993 39.4088 28.9993C39.3121 28.9993 39.2336 29.0782 39.2336 29.1756C39.2336 29.273 39.3121 29.352 39.4088 29.352Z" fill="white"/>
<path d="M18.2239 12.6778C18.3204 12.6778 18.3986 12.5991 18.3986 12.502C18.3986 12.4049 18.3204 12.3262 18.2239 12.3262C18.1275 12.3262 18.0493 12.4049 18.0493 12.502C18.0493 12.5991 18.1275 12.6778 18.2239 12.6778Z" fill="white"/>
<path d="M22.9809 9.16025C23.0773 9.16025 23.1555 9.08153 23.1555 8.98442C23.1555 8.88731 23.0773 8.80859 22.9809 8.80859C22.8845 8.80859 22.8063 8.88731 22.8063 8.98442C22.8063 9.08153 22.8845 9.16025 22.9809 9.16025Z" fill="white"/>
<path d="M22.4643 8.81576C22.5607 8.81576 22.6389 8.73704 22.6389 8.63994C22.6389 8.54283 22.5607 8.46411 22.4643 8.46411C22.3679 8.46411 22.2897 8.54283 22.2897 8.63994C22.2897 8.73704 22.3679 8.81576 22.4643 8.81576Z" fill="white"/>
<path d="M21.9979 8.47153C22.0943 8.47153 22.1725 8.39281 22.1725 8.2957C22.1725 8.19859 22.0943 8.11987 21.9979 8.11987C21.9014 8.11987 21.8232 8.19859 21.8232 8.2957C21.8232 8.39281 21.9014 8.47153 21.9979 8.47153Z" fill="white"/>
<path d="M18.9702 13.586C19.0666 13.586 19.1448 13.5073 19.1448 13.4102C19.1448 13.3131 19.0666 13.2344 18.9702 13.2344C18.8737 13.2344 18.7955 13.3131 18.7955 13.4102C18.7955 13.5073 18.8737 13.586 18.9702 13.586Z" fill="white"/>
<path d="M25.977 4.4332C26.0734 4.4332 26.1516 4.35448 26.1516 4.25737C26.1516 4.16026 26.0734 4.08154 25.977 4.08154C25.8806 4.08154 25.8024 4.16026 25.8024 4.25737C25.8024 4.35448 25.8806 4.4332 25.977 4.4332Z" fill="white"/>
<path d="M27.1279 9.50448C27.2243 9.50448 27.3025 9.42576 27.3025 9.32866C27.3025 9.23155 27.2243 9.15283 27.1279 9.15283C27.0314 9.15283 26.9532 9.23155 26.9532 9.32866C26.9532 9.42576 27.0314 9.50448 27.1279 9.50448Z" fill="white"/>
<path d="M25.3127 8.51425C25.4091 8.51425 25.4873 8.43553 25.4873 8.33842C25.4873 8.24132 25.4091 8.1626 25.3127 8.1626C25.2162 8.1626 25.1381 8.24132 25.1381 8.33842C25.1381 8.43553 25.2162 8.51425 25.3127 8.51425Z" fill="white"/>
<path d="M22.2037 9.86093C22.3001 9.86093 22.3783 9.78221 22.3783 9.6851C22.3783 9.588 22.3001 9.50928 22.2037 9.50928C22.1072 9.50928 22.0291 9.588 22.0291 9.6851C22.0291 9.78221 22.1072 9.86093 22.2037 9.86093Z" fill="white"/>
<path d="M35.9147 38.7235C36.0112 38.7235 36.0894 38.6448 36.0894 38.5477C36.0894 38.4505 36.0112 38.3718 35.9147 38.3718C35.8183 38.3718 35.7401 38.4505 35.7401 38.5477C35.7401 38.6448 35.8183 38.7235 35.9147 38.7235Z" fill="white"/>
<path d="M12.7209 34.4076C12.8177 34.4076 12.8961 34.3287 12.8961 34.2313C12.8961 34.1339 12.8177 34.0549 12.7209 34.0549C12.6242 34.0549 12.5458 34.1339 12.5458 34.2313C12.5458 34.3287 12.6242 34.4076 12.7209 34.4076Z" fill="white"/>
<path d="M24.8774 36.6772C24.9741 36.6772 25.0526 36.5982 25.0526 36.5008C25.0526 36.4034 24.9741 36.3245 24.8774 36.3245C24.7807 36.3245 24.7023 36.4034 24.7023 36.5008C24.7023 36.5982 24.7807 36.6772 24.8774 36.6772Z" fill="white"/>
<path d="M16.3388 34.2668C16.4356 34.2668 16.514 34.1878 16.514 34.0904C16.514 33.993 16.4356 33.9141 16.3388 33.9141C16.2421 33.9141 16.1637 33.993 16.1637 34.0904C16.1637 34.1878 16.2421 34.2668 16.3388 34.2668Z" fill="white"/>
<path d="M17.8509 36.7519C17.9477 36.7519 18.0261 36.6729 18.0261 36.5755C18.0261 36.4781 17.9477 36.3992 17.8509 36.3992C17.7542 36.3992 17.6758 36.4781 17.6758 36.5755C17.6758 36.6729 17.7542 36.7519 17.8509 36.7519Z" fill="white"/>
<path d="M28.9814 35.1861C29.0778 35.1861 29.156 35.1074 29.156 35.0103C29.156 34.9132 29.0778 34.8345 28.9814 34.8345C28.8849 34.8345 28.8068 34.9132 28.8068 35.0103C28.8068 35.1074 28.8849 35.1861 28.9814 35.1861Z" fill="white"/>
<path d="M35.1177 31.6993C35.2142 31.6993 35.2924 31.6206 35.2924 31.5235C35.2924 31.4264 35.2142 31.3477 35.1177 31.3477C35.0213 31.3477 34.9431 31.4264 34.9431 31.5235C34.9431 31.6206 35.0213 31.6993 35.1177 31.6993Z" fill="white"/>
<path d="M39.77 33.8394C39.8664 33.8394 39.9446 33.7607 39.9446 33.6636C39.9446 33.5665 39.8664 33.4878 39.77 33.4878C39.6735 33.4878 39.5953 33.5665 39.5953 33.6636C39.5953 33.7607 39.6735 33.8394 39.77 33.8394Z" fill="white"/>
<path d="M41.3557 34.8609C41.4521 34.8609 41.5303 34.7822 41.5303 34.6851C41.5303 34.588 41.4521 34.5093 41.3557 34.5093C41.2592 34.5093 41.181 34.588 41.181 34.6851C41.181 34.7822 41.2592 34.8609 41.3557 34.8609Z" fill="white"/>
<path d="M41.6163 32.075C41.7127 32.075 41.7909 31.9963 41.7909 31.8992C41.7909 31.8021 41.7127 31.7234 41.6163 31.7234C41.5198 31.7234 41.4417 31.8021 41.4417 31.8992C41.4417 31.9963 41.5198 32.075 41.6163 32.075Z" fill="white"/>
<path d="M18.4841 28.1307C18.5805 28.1307 18.6587 28.052 18.6587 27.9549C18.6587 27.8578 18.5805 27.7791 18.4841 27.7791C18.3876 27.7791 18.3094 27.8578 18.3094 27.9549C18.3094 28.052 18.3876 28.1307 18.4841 28.1307Z" fill="white"/>
<path d="M18.5504 32.2279C18.6792 32.2279 18.7836 32.1228 18.7836 31.9931C18.7836 31.8634 18.6792 31.7583 18.5504 31.7583C18.4217 31.7583 18.3173 31.8634 18.3173 31.9931C18.3173 32.1228 18.4217 32.2279 18.5504 32.2279Z" fill="white"/>
<path d="M19.9495 35.2017C20.0783 35.2017 20.1827 35.0966 20.1827 34.967C20.1827 34.8373 20.0783 34.7322 19.9495 34.7322C19.8207 34.7322 19.7163 34.8373 19.7163 34.967C19.7163 35.0966 19.8207 35.2017 19.9495 35.2017Z" fill="white"/>
<path d="M36.7075 32.1026C36.8363 32.1026 36.9407 31.9975 36.9407 31.8678C36.9407 31.7382 36.8363 31.6331 36.7075 31.6331C36.5788 31.6331 36.4744 31.7382 36.4744 31.8678C36.4744 31.9975 36.5788 32.1026 36.7075 32.1026Z" fill="white"/>
<path d="M42.7392 31.7581C42.8679 31.7581 42.9723 31.653 42.9723 31.5234C42.9723 31.3937 42.8679 31.2886 42.7392 31.2886C42.6104 31.2886 42.506 31.3937 42.506 31.5234C42.506 31.653 42.6104 31.7581 42.7392 31.7581Z" fill="white"/>
<path d="M39.7544 30.4747C39.8832 30.4747 39.9876 30.3696 39.9876 30.2399C39.9876 30.1102 39.8832 30.0051 39.7544 30.0051C39.6256 30.0051 39.5212 30.1102 39.5212 30.2399C39.5212 30.3696 39.6256 30.4747 39.7544 30.4747Z" fill="white"/>
<path d="M36.7075 30.5999C36.8363 30.5999 36.9407 30.4948 36.9407 30.3652C36.9407 30.2355 36.8363 30.1304 36.7075 30.1304C36.5788 30.1304 36.4744 30.2355 36.4744 30.3652C36.4744 30.4948 36.5788 30.5999 36.7075 30.5999Z" fill="white"/>
<path d="M30.4225 6.41103L31.0024 6.3552L30.4236 6.32233C30.4055 6.20963 30.3158 6.12146 30.2028 6.10685L30.1474 5.52563L30.1142 6.11155C30.0096 6.13503 29.9292 6.2232 29.9163 6.33277L29.3235 6.38703L29.9204 6.41937C29.9422 6.52007 30.023 6.59885 30.1246 6.61764L30.1785 7.21659L30.2101 6.61868C30.3174 6.60042 30.4023 6.51746 30.4225 6.41103Z" fill="white"/>
<path d="M20.6362 12.911L21.216 12.8552L20.6372 12.8223C20.6196 12.7096 20.5294 12.6215 20.4165 12.6069L20.361 12.0256L20.3284 12.6115C20.2232 12.635 20.1429 12.7232 20.1299 12.8328L19.5371 12.887L20.1341 12.9194C20.1558 13.0201 20.2367 13.0989 20.3382 13.1176L20.3921 13.7166L20.4242 13.1187C20.5315 13.1009 20.6165 13.0175 20.6362 12.911Z" fill="white"/>
<path d="M42.3142 30.0961L42.8941 30.0403L42.3153 30.0074C42.2977 29.8947 42.2075 29.8065 42.0945 29.7919L42.0391 29.2107L42.0064 29.7966C41.9018 29.8201 41.8215 29.9083 41.8085 30.0178L41.2157 30.0721L41.8126 30.1044C41.8344 30.2051 41.9152 30.2839 42.0168 30.3027L42.0707 30.9017L42.1028 30.3037C42.2091 30.286 42.294 30.203 42.3142 30.0961Z" fill="white"/>
<path d="M18.6774 39.0814L19.2573 39.0256L18.6785 38.9927C18.6603 38.88 18.5707 38.7918 18.4577 38.7772L18.4023 38.1965L18.3696 38.7819C18.2644 38.8054 18.1841 38.8936 18.1712 39.0031L17.5784 39.0574L18.1753 39.0897C18.1971 39.1904 18.2779 39.2698 18.3795 39.288L18.4334 39.887L18.4655 39.2891C18.5722 39.2713 18.6577 39.1878 18.6774 39.0814Z" fill="white"/>
<path d="M40.4721 34.6989L41.0519 34.643L40.4731 34.6102C40.4555 34.4975 40.3653 34.4093 40.2524 34.3947L40.1969 33.8135L40.1643 34.3989C40.0596 34.4223 39.9793 34.5105 39.9663 34.6201L39.3735 34.6743L39.9705 34.7067C39.9922 34.8074 40.0731 34.8862 40.1746 34.905L40.2285 35.5039L40.2607 34.906C40.3669 34.8888 40.4524 34.8053 40.4721 34.6989Z" fill="white"/>
<path d="M30.8671 18.4616C28.4488 19.4081 26.09 20.2528 24.0997 20.8799C20.0552 22.155 8.98948 25.6069 2.30493 29.9582L2.86457 30.1773C6.93748 27.8608 9.58487 27.133 12.1297 26.3269C14.8968 25.4503 23.8421 23.3425 27.8927 22.1947C29.2613 21.807 30.864 21.2994 32.5616 20.6817C32.1667 20.127 31.7501 19.5709 31.3117 19.0157C31.1651 18.8284 31.0163 18.6437 30.8671 18.4616ZM33.8218 22.562C33.2362 22.9601 32.7455 23.2778 32.402 23.4782C30.4121 24.6364 20.7113 31.3043 18.5043 32.8382C16.2974 34.3721 10.172 40.1947 8.36869 41.8851L8.30651 42.5733C14.1205 37.3142 15.9445 36.0171 18.2556 34.2469C21.116 32.0556 27.0331 28.0016 29.0441 26.7025C30.9666 25.4608 32.7004 24.3187 34.2565 23.2737C34.2311 23.2309 34.2058 23.1881 34.1804 23.1448C34.0633 22.9512 33.9436 22.7571 33.8218 22.562ZM42.9102 12.8973C40.0778 14.569 35.6137 16.5865 31.2827 18.2983C31.3863 18.4262 31.4894 18.555 31.592 18.685C32.076 19.2985 32.5325 19.9163 32.9621 20.5345C36.3666 19.2719 40.1021 17.5773 43.0662 15.5263C41.6541 16.8735 36.9858 20.3863 34.1394 22.3444C34.2861 22.585 34.4281 22.8255 34.5654 23.065C38.8777 20.1594 41.7795 18.0208 43.4703 16.5907C45.8022 14.6185 51.1187 10.2046 53.1396 4.28809C49.5947 8.82774 45.4037 11.4255 42.9102 12.8973Z" fill="#FF342B"/>
<path d="M23.2582 28.6637C22.7996 28.0825 22.1653 27.3041 21.6891 26.7004C21.0523 25.8933 20.4631 25.0778 19.9232 24.2634C19.747 24.3077 19.5713 24.3521 19.3957 24.3964C20.0475 25.4206 20.7714 26.4432 21.5601 27.4429C22.1363 28.1733 22.6602 28.7613 22.9286 29.127C22.983 29.2011 23.0908 29.365 23.2364 29.583C23.4043 29.4683 23.5738 29.3524 23.7448 29.2356C23.5795 29.0545 23.4162 28.8641 23.2582 28.6637ZM26.6056 31.7232C26.2289 31.3643 25.3154 30.7648 24.3645 29.8653C24.1546 30.0103 23.9427 30.1575 23.7302 30.3057C24.3443 31.177 25.1806 32.247 25.8356 32.559C26.8222 33.0297 27.0881 32.1834 26.6056 31.7232ZM31.5921 18.685C26.1553 11.7949 19.5138 8.00965 16.6503 10.3006C14.4263 12.0797 15.3393 17.2794 18.4049 22.7415C18.5635 22.6867 18.7205 22.633 18.8759 22.5797C15.7819 17.258 14.9352 12.3124 17.0328 10.634C19.6687 8.52513 26.0336 12.325 31.3128 19.0152C32.4057 20.3999 33.3664 21.7898 34.1799 23.1448C37.2952 28.3361 38.2513 33.0307 36.0987 34.947C35.4401 35.5335 33.4275 35.7636 30.791 34.5688C30.7542 34.6152 30.8133 34.741 30.8594 34.7717C33.1353 35.6931 35.3152 36.0443 36.4159 35.1641C39.0607 33.0479 37.0289 25.575 31.5921 18.685Z" fill="white"/>
<path d="M8.2749 19.5027H11.7571L14.6796 24.4957C14.6796 24.4957 14.6796 20.8801 14.6796 20.5983C14.6796 20.1601 14.1278 19.5888 13.9334 19.5027C14.1666 19.5027 16.2031 19.5027 16.343 19.5027C16.1953 19.5418 15.7212 20.1209 15.7212 20.5983C15.7212 20.8331 15.7212 26.0766 15.7212 26.327C15.7212 26.6792 16.2264 27.1644 16.4674 27.3522H13.1095L10.1404 22.3357C10.1404 22.3357 10.1404 26.0766 10.1404 26.2801C10.1404 26.6714 10.5212 27.047 10.9176 27.3679H8.35263C8.71795 27.2114 9.06772 26.7183 9.09881 26.327C9.1299 25.9357 9.09881 20.8879 9.09881 20.6688C9.09881 20.1914 8.64022 19.8001 8.2749 19.5027Z" fill="white"/>
<path d="M40.1275 27.3522H44.76C44.5035 27.2896 44.2159 26.9844 44.0605 26.5775C43.905 26.1705 41.4489 19.5027 41.4489 19.5027H39.6876C39.188 19.8648 38.6527 20.2467 38.0812 20.6489C38.0796 20.6636 38.0781 20.6782 38.0755 20.6923C37.9988 21.1618 36.6204 26.1882 36.5365 26.4366C36.4199 26.7809 35.8214 27.1644 35.5804 27.3679H38.0755C37.8268 27.0862 37.6247 26.8122 37.6713 26.4992C37.7179 26.1862 37.8579 25.5601 37.8579 25.5601H40.4384C40.555 25.8731 40.642 26.1543 40.6871 26.4209C40.7415 26.7418 40.4151 27.1018 40.1275 27.3522ZM38.091 24.5583L38.9616 21.694L40.1119 24.5583H38.091ZM37.6988 19.7886C37.8268 19.6936 37.9553 19.5982 38.0833 19.5027H37.407C37.4744 19.5653 37.5858 19.6639 37.6988 19.7886Z" fill="white"/>
<path d="M19.9806 26.4992C20.0273 26.1862 20.1672 25.5601 20.1672 25.5601H22.7477C22.8643 25.8731 22.9514 26.1543 22.9965 26.4209C23.0509 26.7418 22.7244 27.1018 22.4368 27.3522H26.5154C26.6004 27.2949 26.6849 27.2375 26.7693 27.1806C26.6113 27.0397 26.4657 26.8284 26.3698 26.5775C26.2144 26.1705 23.7582 19.5027 23.7582 19.5027H19.7164C19.9107 19.6827 20.4703 20.1679 20.3848 20.6923C20.3086 21.1618 18.9298 26.1882 18.8458 26.4366C18.7292 26.7809 18.1307 27.1644 17.8898 27.3679H20.3848C20.1361 27.0862 19.934 26.8122 19.9806 26.4992ZM21.2709 21.694L22.4213 24.5583H20.4004L21.2709 21.694Z" fill="white"/>
<path d="M34.0695 23.399C33.3088 23.9093 32.5062 24.442 31.6605 24.9981C32.0398 25.1834 32.3419 25.4161 32.3709 25.7166C32.4248 26.2811 31.2983 26.554 30.28 26.4366C30.0764 26.4131 29.8764 26.3594 29.6857 26.2874C29.4743 26.4246 29.2608 26.5628 29.0442 26.7027C28.824 26.8451 28.5566 27.0204 28.2514 27.2228V28.0331C28.4535 27.634 28.8955 27.2766 29.2385 27.2583C29.3862 27.2505 29.8992 27.7279 32.0134 27.6105C33.0394 27.5536 35.0214 26.4522 34.9903 25.1844C34.9717 24.4352 34.583 23.8508 34.0695 23.399ZM28.2508 25.3566V26.182C28.4379 26.0562 28.6224 25.9326 28.8032 25.8121C28.5187 25.6128 28.3172 25.4265 28.2508 25.3566ZM33.3466 22.8809C33.1497 22.7635 32.9502 22.6608 32.759 22.57C31.7641 22.1004 30.7226 22.0143 30.5049 21.3804C30.3516 20.9333 30.7848 20.5195 31.8418 20.5352C32.8989 20.5508 33.8783 21.1848 34.1426 21.4117V19.3926C34.0648 19.4708 33.7239 19.8648 33.4119 19.7995C32.8134 19.6743 31.7952 19.511 30.6293 19.5178C29.2924 19.5256 28.142 20.566 28.1032 21.8813C28.0488 23.7204 29.51 24.2213 30.3339 24.5108C30.4189 24.5406 30.5158 24.5724 30.621 24.6063C31.4112 24.0888 32.0362 23.6901 32.402 23.4778C32.6476 23.3354 32.9694 23.1308 33.3466 22.8809Z" fill="white"/>
</svg>
